<?xml version="1.0" encoding="UTF-8"?>
<svg id="Layer_1" data-name="Layer 1" xmlns="http://www.w3.org/2000/svg" xmlns:xlink="http://www.w3.org/1999/xlink" viewBox="0 0 488.42 107.92">
  <defs>
    <style>
      .cls-1 {
        fill: url(#linear-gradient-2);
      }

      .cls-2 {
        fill: url(#linear-gradient-6);
      }

      .cls-3 {
        fill: #111212;
      }

      .cls-4 {
        fill: url(#linear-gradient-5);
      }

      .cls-5 {
        fill: url(#linear-gradient-7);
      }

      .cls-6 {
        fill: url(#linear-gradient-3);
      }

      .cls-7 {
        fill: url(#linear-gradient);
      }

      .cls-8 {
        fill: url(#linear-gradient-4);
      }
    </style>
    <linearGradient id="linear-gradient" x1="154.91" y1="32.14" x2="154.91" y2="72.54" gradientUnits="userSpaceOnUse">
      <stop offset="0" stop-color="#111212"/>
      <stop offset="1" stop-color="#0d0d0c"/>
    </linearGradient>
    <linearGradient id="linear-gradient-2" x1="191.44" y1="32.14" x2="191.44" y2="72.54" xlink:href="#linear-gradient"/>
    <linearGradient id="linear-gradient-3" x1="233.94" y1="32.14" x2="233.94" y2="72.54" xlink:href="#linear-gradient"/>
    <linearGradient id="linear-gradient-4" x1="267.42" y1="32.14" x2="267.42" y2="72.54" xlink:href="#linear-gradient"/>
    <linearGradient id="linear-gradient-5" x1="100.12" y1="43.09" x2="56.08" y2="115.93" xlink:href="#linear-gradient"/>
    <linearGradient id="linear-gradient-6" x1="66.13" y1="22.53" x2="22.08" y2="95.38" xlink:href="#linear-gradient"/>
    <linearGradient id="linear-gradient-7" x1="92.53" y1="38.49" x2="48.48" y2="111.34" xlink:href="#linear-gradient"/>
  </defs>
  <g>
    <path class="cls-7" d="m161.45,76.65c-.03,2.23-.38,4.34-1.05,6.34-.67,2-1.58,3.83-2.72,5.49-1.14,1.66-2.49,3.13-4.05,4.39-1.56,1.26-3.23,2.27-5.03,3l-1.42-3.25c-.15-.37-.27-.85-.37-1.44s-.14-1.06-.14-1.4c0-.91.18-1.72.55-2.42.37-.7.8-1.37,1.3-2.01.5-.64,1.02-1.3,1.56-1.97.53-.67.98-1.42,1.35-2.24.64-1.46.96-2.97.96-4.53V30.31h9.06v46.34Zm-10.66-58.42c0-.85.16-1.65.48-2.4.32-.75.76-1.4,1.33-1.97s1.22-1.01,1.97-1.33c.75-.32,1.55-.48,2.4-.48s1.65.16,2.4.48c.75.32,1.4.76,1.97,1.33.56.57,1.01,1.22,1.33,1.97.32.75.48,1.55.48,2.4s-.16,1.66-.48,2.4c-.32.75-.76,1.41-1.33,1.97-.57.57-1.22,1.01-1.97,1.33-.75.32-1.55.48-2.4.48s-1.66-.16-2.4-.48c-.75-.32-1.4-.76-1.97-1.33-.56-.56-1.01-1.22-1.33-1.97-.32-.75-.48-1.55-.48-2.4Z"/>
    <path class="cls-1" d="m204.22,78.34c-.28-.4-.5-.76-.66-1.1-.17-.33-.33-.74-.48-1.21s-.23-.98-.23-1.53v-1.97c-.55,1.1-1.31,2.05-2.29,2.86-.98.81-2.08,1.48-3.29,2.01-1.22.53-2.54.94-3.96,1.21-1.42.27-2.86.41-4.32.41-2.71,0-5.18-.5-7.39-1.51-2.21-1.01-4.1-2.44-5.67-4.3-1.57-1.86-2.79-4.11-3.66-6.75s-1.3-5.59-1.3-8.85v-27.31h9.06v27.31c0,4,.73,7.13,2.2,9.4s3.72,3.41,6.77,3.41c1.83,0,3.56-.22,5.19-.66,1.63-.44,3.08-1.04,4.35-1.81s2.28-1.65,3.04-2.65c.76-1.01,1.19-2.06,1.28-3.16v-31.84h9.06v48.03h-7.68Z"/>
    <path class="cls-6" d="m220.28,68.05c.61-.3,1.21-.56,1.81-.76.59-.2,1.2-.3,1.81-.3.79,0,1.55.15,2.26.46.72.3,1.58.81,2.58,1.51.7.49,1.46.84,2.29,1.05.82.21,1.68.32,2.56.32.95,0,1.88-.14,2.81-.43s1.76-.72,2.49-1.28,1.33-1.26,1.78-2.08c.46-.82.69-1.78.69-2.88,0-.85-.13-1.59-.39-2.19-.26-.61-.71-1.17-1.35-1.67-.64-.5-1.5-.99-2.58-1.46-1.08-.47-2.43-.98-4.05-1.53-1.68-.58-3.33-1.24-4.96-1.99-1.63-.75-3.09-1.65-4.37-2.72-1.28-1.07-2.32-2.37-3.11-3.89-.79-1.52-1.19-3.35-1.19-5.49,0-1.86.43-3.59,1.28-5.19.85-1.6,1.97-2.98,3.36-4.14,1.39-1.16,2.97-2.07,4.73-2.75,1.77-.67,3.57-1.01,5.4-1.01s3.56.34,5.1,1.01c1.54.67,2.87,1.43,3.98,2.29,1.11.85,2,1.66,2.65,2.43.66.76,1.06,1.23,1.21,1.42l-2.15,1.83c-1.28,1.1-2.78,1.65-4.48,1.65-.61,0-1.26-.13-1.94-.39-.69-.26-1.49-.62-2.4-1.08-.61-.3-1.27-.46-1.97-.46-1.19,0-2.17.17-2.95.5-.78.34-1.4.74-1.88,1.21-.47.47-.8.96-.98,1.46-.18.5-.27.91-.27,1.21,0,.89.23,1.62.69,2.22.46.59,1.05,1.12,1.78,1.56.73.44,1.56.83,2.49,1.17s1.87.66,2.81.96c1.83.61,3.6,1.31,5.31,2.1,1.71.79,3.22,1.77,4.55,2.93,1.33,1.16,2.39,2.56,3.18,4.19.79,1.63,1.19,3.58,1.19,5.83,0,2.08-.4,4.03-1.21,5.88-.81,1.84-1.94,3.48-3.41,4.89s-3.2,2.54-5.22,3.36c-2.01.82-4.22,1.23-6.63,1.23-1.65,0-3.26-.22-4.83-.66-1.57-.44-3.04-1.09-4.41-1.94-1.37-.85-2.61-1.88-3.73-3.06s-2.05-2.55-2.81-4.07l2.47-1.23Z"/>
    <path class="cls-8" d="m268.63,66.22c0,.49.08.98.23,1.46s.37.94.64,1.35c.28.41.62.75,1.03,1.01.41.26.89.39,1.44.39l1.1-.14c1.31-.37,2.46-.55,3.43-.55,1.25,0,2.35.32,3.29.96.95.64,1.74,1.43,2.38,2.38l1.1,1.6c-.55.55-1.29,1.09-2.22,1.62-.93.53-1.92,1-2.97,1.4s-2.12.72-3.2.96c-1.08.25-2.05.37-2.9.37-1.92,0-3.65-.32-5.17-.96s-2.82-1.52-3.89-2.65-1.89-2.48-2.47-4.05c-.58-1.57-.87-3.29-.87-5.15v-27.27h-8.01v-4.94c0-2.53,2.33-3.8,7-3.8h1.01v-9.88c0-.97.11-1.89.34-2.74.23-.85.48-1.59.76-2.2.33-.73.7-1.39,1.1-1.97h6.86v16.84h13.31v8.69h-13.31v27.27Z"/>
    <path class="cls-3" d="m319.53,12.79h8.83l28.59,65.56h-5.21c-1.44,0-2.73-.37-3.89-1.12s-2.03-1.78-2.61-3.09l-4.57-10.43h-33.49l-4.53,10.43c-.55,1.28-1.41,2.3-2.58,3.06-1.17.76-2.48,1.14-3.91,1.14h-5.21l28.59-65.56Zm3.57,14.46l-11.94,27.4h25.57l-11.94-27.4c-.49-1.07-.77-2.36-.87-3.89-.06.76-.16,1.46-.3,2.1s-.31,1.23-.53,1.78Z"/>
    <path class="cls-3" d="m396.7,36.35c-.49,1.25-1.23,2.22-2.22,2.9-.99.69-2.49,1.03-4.51,1.03.49,1.13.87,2.3,1.14,3.52.27,1.22.41,2.47.41,3.75,0,2.47-.47,4.8-1.42,6.98-.95,2.18-2.23,4.08-3.84,5.7-1.62,1.61-3.51,2.9-5.69,3.84-2.18.95-4.51,1.42-6.98,1.42-2.81,0-5.46-.61-7.96-1.83-1.16.76-1.88,1.38-2.15,1.85s-.41.85-.41,1.12c0,.21.05.41.14.59l.18.18c.24.28.72.51,1.42.71.7.2,1.52.36,2.45.48s1.94.2,3.04.25,2.15.07,3.16.07c2.04,0,4.12.09,6.22.28s4.04.58,5.81,1.19c2.56.88,4.51,2.23,5.86,4.05,1.34,1.81,2.01,4.02,2.01,6.61,0,1.95-.38,3.72-1.14,5.31s-1.88,2.95-3.34,4.09c-1.46,1.14-3.25,2.03-5.35,2.65-2.1.62-4.5.94-7.18.94-2.17,0-4.28-.17-6.34-.5s-4.05-.76-5.97-1.28-3.78-1.1-5.58-1.76c-1.8-.66-3.49-1.29-5.08-1.9l1.1-3.06c.37-1.07,1.11-1.91,2.22-2.54,1.11-.62,2.32-.94,3.64-.94.79,0,1.57.09,2.33.28s1.46.41,2.1.69c.3.12.81.31,1.51.57.7.26,1.56.53,2.59.8,1.02.28,2.17.51,3.45.71,1.28.2,2.64.3,4.07.3.67,0,1.49-.08,2.45-.23.96-.15,1.87-.39,2.72-.73.85-.34,1.59-.79,2.2-1.35.61-.57.92-1.24.92-2.04,0-.61-.11-1.09-.32-1.44s-.76-.68-1.65-.98c-1.25-.43-2.68-.7-4.28-.82s-3.26-.21-4.99-.28c-1.72-.06-3.46-.14-5.21-.25s-3.42-.34-4.99-.71c-1.57-.37-3-.92-4.28-1.65-1.28-.73-2.32-1.77-3.11-3.11-.55-.91-.82-1.98-.82-3.2,0-1.28.53-2.64,1.58-4.07,1.05-1.43,2.66-2.7,4.83-3.8-1.8-1.65-3.21-3.6-4.23-5.86-1.02-2.26-1.53-4.7-1.53-7.32,0-2.47.47-4.8,1.42-6.98s2.23-4.08,3.84-5.69,3.51-2.9,5.69-3.84,4.51-1.42,6.98-1.42c1.98,0,3.87.3,5.65.92,1.78.61,3.42,1.46,4.92,2.56.61-.37,1.41-.72,2.4-1.05.99-.33,2.25-.5,3.77-.5.98,0,2.08.1,3.32.3s2.6.53,4.09.98l-1.05,3.52Zm-32.34,11.21c0,1.28.24,2.48.73,3.59s1.15,2.09,1.99,2.93c.84.84,1.81,1.5,2.93,1.99,1.11.49,2.31.73,3.59.73s2.48-.24,3.59-.73c1.11-.49,2.09-1.15,2.93-1.99.84-.84,1.5-1.81,1.99-2.93.49-1.11.73-2.31.73-3.59s-.24-2.48-.73-3.59c-.49-1.11-1.15-2.09-1.99-2.93-.84-.84-1.81-1.5-2.93-1.99s-2.31-.73-3.59-.73-2.48.25-3.59.73-2.09,1.15-2.93,1.99-1.5,1.81-1.99,2.93-.73,2.31-.73,3.59Z"/>
    <path class="cls-3" d="m401,18.23c0-.85.16-1.65.48-2.4.32-.75.76-1.4,1.33-1.97s1.22-1.01,1.97-1.33c.75-.32,1.55-.48,2.4-.48s1.65.16,2.4.48c.75.32,1.4.76,1.97,1.33.57.57,1.01,1.22,1.33,1.97.32.75.48,1.55.48,2.4s-.16,1.66-.48,2.4c-.32.75-.76,1.41-1.33,1.97-.56.57-1.22,1.01-1.97,1.33-.75.32-1.55.48-2.4.48s-1.66-.16-2.4-.48c-.75-.32-1.4-.76-1.97-1.33-.57-.56-1.01-1.22-1.33-1.97-.32-.75-.48-1.55-.48-2.4Zm10.66,12.08v48.03h-9.06V30.31h9.06Z"/>
    <path class="cls-3" d="m432.33,12.79v65.56h-9.06V12.79h9.06Z"/>
    <path class="cls-3" d="m488.42,50.25c0,1.07-.2,2.02-.62,2.86-.41.84-.92,1.56-1.53,2.15-.61.59-1.29,1.05-2.03,1.37-.75.32-1.46.48-2.13.48h-33.39c.28,1.86.88,3.58,1.83,5.17s2.12,2.97,3.52,4.14c1.4,1.18,2.99,2.1,4.76,2.77,1.77.67,3.61,1.01,5.53,1.01,1.4,0,2.75-.18,4.05-.53s2.52-.85,3.68-1.49c.61-.34,1.21-.58,1.79-.73.58-.15,1.22-.23,1.92-.23.98,0,1.86.18,2.65.55.79.37,1.54.9,2.24,1.6l1.74,1.74c-2.29,2.44-4.97,4.37-8.05,5.78-3.08,1.42-6.42,2.13-10.02,2.13-3.39,0-6.58-.65-9.58-1.94-3-1.3-5.63-3.07-7.87-5.31s-4.01-4.86-5.31-7.87c-1.3-3.01-1.94-6.2-1.94-9.58s.65-6.58,1.94-9.58c1.3-3,3.07-5.63,5.31-7.87s4.86-4.01,7.87-5.31c3.01-1.3,6.2-1.94,9.58-1.94,2.84,0,5.55.47,8.14,1.42s4.94,2.24,7.04,3.89c2.1,1.65,3.91,3.6,5.42,5.86,1.51,2.26,2.6,4.71,3.27,7.36.09.34.14.69.14,1.05s.01.72.05,1.05Zm-36.28-1.97h26.9c-.61-1.43-1.4-2.75-2.38-3.96-.98-1.2-2.1-2.24-3.36-3.11-1.27-.87-2.66-1.55-4.19-2.04-1.52-.49-3.11-.73-4.76-.73-1.8,0-3.51.28-5.15.85-1.63.57-3.11,1.35-4.44,2.36-1.33,1.01-2.47,2.2-3.43,3.59-.96,1.39-1.69,2.9-2.17,4.55.24-.34.61-.67,1.1-1.01.49-.33,1.11-.5,1.88-.5Z"/>
  </g>
  <g>
    <polygon class="cls-4" points="53.06 107.92 69.16 107.92 61.11 93.98 53.06 107.92"/>
    <path class="cls-2" d="m62.25,40.24c-.51-.88-1.77-.88-2.28,0l-30.1,52.13c-.71,1.24-2.03,2-3.46,2H0l6.67,11.56c.71,1.24,2.03,2,3.46,2h27.05l32.11-55.5-7.04-12.19Z"/>
    <path class="cls-5" d="m71.3,2c-.71-1.24-2.03-2-3.46-2h-13.45c-1.43,0-2.75.76-3.46,2L5.42,80.81h15.65L57.01,18.57c.71-1.24,2.03-2,3.46-2h1.29c1.43,0,2.75.76,3.46,2l40.83,70.71-1.78,3.08c-.71,1.24-2.03,2-3.46,2h-7.3l-16.39-28.39-8.15,14.11,16.07,27.83h23.46c3.63,0,6.98-1.94,8.8-5.08l6.11-10.59L71.3,2Z"/>
  </g>
</svg>